<svg width="904" height="904" viewBox="0 0 904 904" fill="none" xmlns="http://www.w3.org/2000/svg">
<path d="M754.148 904H149.852C67.0902 904 0 836.91 0 754.148V149.852C0 67.0902 67.0902 0 149.852 0H754.148C836.91 0 904 67.0902 904 149.852V754.148C904 836.91 836.91 904 754.148 904Z" fill="#00AEEF"/>
<path d="M462.664 380.619C415.632 380.619 374.705 407.075 354.093 445.916C333.474 407.075 292.568 380.619 245.503 380.619C218.898 380.591 193.006 389.219 171.735 405.2V301.653C171.617 295.216 168.973 289.084 164.375 284.577C159.777 280.071 153.592 277.552 147.154 277.563C133.728 277.563 122.923 288.274 122.616 301.653V505.555H122.64C123.724 572.504 178.282 626.437 245.503 626.437C292.568 626.437 333.474 599.956 354.093 561.154C374.705 599.956 415.632 626.437 462.664 626.437C530.521 626.437 585.566 571.413 585.566 503.503C585.566 435.629 530.521 380.619 462.664 380.619V380.619ZM245.503 577.229C204.784 577.229 171.735 544.243 171.735 503.521C171.735 462.813 204.784 429.824 245.503 429.824C286.218 429.824 319.197 462.813 319.197 503.503C319.197 544.233 286.218 577.229 245.503 577.229ZM462.664 577.229C421.935 577.229 388.911 544.233 388.911 503.503C388.911 462.813 421.935 429.824 462.664 429.824C503.376 429.824 536.383 462.813 536.383 503.503C536.383 544.233 503.376 577.229 462.664 577.229Z" fill="white"/>
<path d="M776.275 585.287L709.471 503.344L776.356 421.243C784.813 410.413 782.387 395.288 770.713 387.255C759.025 379.15 742.625 381.227 733.582 391.736V391.722L676.037 462.248L618.544 391.722V391.736C609.593 381.227 593.091 379.15 581.438 387.255C569.785 395.295 567.348 410.413 575.848 421.243H575.823L642.592 503.344L575.823 585.287H575.848C567.348 596.153 569.785 611.228 581.438 619.297C593.091 627.366 609.593 625.31 618.544 614.787L676.037 544.36L733.501 614.787C742.555 625.31 758.947 627.366 770.635 619.297C782.313 611.228 784.75 596.153 776.275 585.287Z" fill="white"/>
</svg>
