<svg width="915" height="890" viewBox="0 0 915 890" fill="none" xmlns="http://www.w3.org/2000/svg">
<g clip-path="url(#clip0)">
<path d="M679.384 426.406L669.463 423.927V414.008C669.463 324.762 597.561 252.869 510.784 252.869C446.317 252.869 386.814 292.537 362.017 352.034L354.583 369.391L342.185 356.992C329.783 344.598 312.428 337.161 295.072 337.161C286.27 337.124 277.549 338.83 269.411 342.181C261.272 345.532 253.878 350.461 247.654 356.684C241.431 362.906 236.501 370.3 233.15 378.437C229.799 386.575 228.092 395.295 228.129 404.095L230.606 418.973L220.688 421.447C173.579 436.325 141.345 478.467 141.345 525.57C141.345 585.067 190.936 634.652 250.44 634.652H662.022C719.045 634.652 768.633 587.544 768.633 528.049C766.165 478.467 731.452 436.323 679.384 426.406V426.406Z" fill="black"/>
<path d="M686.825 0H230.611C101.682 0 0.0257721 104.123 0.0257721 230.556V659.441C0.0257721 788.357 104.159 889.998 230.611 889.998H684.345C813.279 889.998 914.931 785.875 914.931 659.441V233.036C917.408 104.123 813.275 0 686.825 0V0ZM662.03 661.923H250.447C176.066 661.923 116.557 602.424 116.557 528.049C116.557 471.034 151.271 423.927 203.339 404.095C205.816 354.513 245.486 314.85 295.075 314.85C312.431 314.85 329.788 319.808 344.663 329.723C376.897 267.747 438.883 230.559 508.308 230.559C607.484 230.559 689.307 309.896 691.784 406.579C748.811 421.452 790.963 473.513 790.963 533.012C790.961 602.422 733.934 661.923 662.03 661.923Z" fill="black"/>
<path d="M694.261 404.095C689.304 304.931 609.961 228.079 510.784 228.079C441.362 228.079 376.894 267.747 347.14 327.248C332.263 317.329 314.908 312.371 297.551 312.371C247.963 312.371 208.293 352.034 205.813 401.616C153.745 421.447 119.034 471.03 119.034 525.57C119.034 599.942 178.541 659.444 252.924 659.444H664.509C736.409 659.444 795.917 599.947 795.917 528.049C790.961 471.027 751.29 418.97 694.261 404.095V404.095ZM662.029 637.131H250.447C190.943 637.131 141.354 587.548 141.354 528.054C141.354 478.472 173.586 438.804 220.695 423.931L230.613 421.452L228.136 406.579C228.136 369.39 257.888 339.64 295.079 339.64C312.435 339.64 329.792 347.077 342.192 359.476L354.589 371.87L362.024 354.517C386.817 295.018 443.844 255.353 510.791 255.353C600.048 255.353 669.47 327.246 669.47 416.491V426.41L679.39 428.889C731.458 436.323 766.172 480.951 766.172 533.012C766.165 590.028 719.054 637.131 662.029 637.131V637.131Z" fill="#E4E4E4"/>
</g>
<defs>
<clipPath id="clip0">
<rect width="915" height="890" fill="white"/>
</clipPath>
</defs>
</svg>
