<svg width="1895" height="901" viewBox="0 0 1895 901" fill="none" xmlns="http://www.w3.org/2000/svg">
<path d="M792.398 271.405V271.363L1074.44 440.256L1242.5 369.534C1276.66 354.783 1313.49 347.198 1350.7 347.247C1356.91 347.247 1363.04 347.541 1369.13 347.919C1348.93 269.149 1306.28 197.941 1246.36 142.95C1186.44 87.959 1111.83 51.5535 1031.6 38.1584C951.369 24.7634 868.975 34.9557 794.432 67.4966C719.888 100.037 656.406 153.525 611.7 221.459L615.983 221.333C678.308 221.251 739.414 238.595 792.398 271.405V271.405Z" fill="#0364B8"/>
<path d="M792.44 271.363C739.439 238.56 678.318 221.231 615.983 221.333L611.7 221.459C550.698 222.222 491.057 239.586 439.185 271.687C387.312 303.788 345.169 349.412 317.284 403.657C289.398 457.902 276.823 518.717 280.911 579.569C284.999 640.421 305.595 699.009 340.486 749.039L589.113 644.405L699.698 597.9L945.848 494.315L1074.4 440.256L792.44 271.363Z" fill="#0078D4"/>
<path d="M1369.13 347.919C1362.99 347.49 1356.84 347.266 1350.7 347.247C1313.5 347.217 1276.69 354.816 1242.55 369.576L1074.44 440.256L1123.19 469.426L1282.93 565.079L1352.63 606.798L1590.97 749.501C1612.62 709.313 1623.85 664.336 1623.61 618.688C1623.37 573.041 1611.68 528.183 1589.6 488.224C1567.53 448.264 1535.78 414.481 1497.26 389.968C1458.74 365.456 1414.68 350.998 1369.13 347.919V347.919Z" fill="#1490DF"/>
<path d="M1352.63 606.798L1282.93 565.079L1123.19 469.384L1074.49 440.256L945.89 494.315L699.74 597.9L589.113 644.405L340.402 749.039C371.316 793.468 412.527 829.756 460.516 854.803C508.506 879.851 561.846 892.913 615.982 892.875H1350.7C1399.96 892.894 1448.32 879.574 1490.62 854.33C1532.92 829.087 1567.6 792.861 1590.97 749.501L1352.63 606.798Z" fill="#28A8EA"/>
</svg>
