<svg width="605" height="848" viewBox="0 0 605 848" fill="none" xmlns="http://www.w3.org/2000/svg">
<path d="M180.446 482.689C181.237 505.637 199.248 523.243 208.154 529.178C212.113 537.882 206.505 542.036 203.206 543.025C156.695 547.971 107.216 529.178 88.4135 515.33C69.6112 501.482 17.1628 468.842 2.31894 383.778C-9.55618 315.728 27.0588 259.151 46.8506 239.369C115.462 170.79 253.478 32.6447 256.644 28.6883C260.603 23.7428 348.676 -38.5711 422.896 37.5903C482.271 98.5194 452.254 172.439 429.823 201.782C368.798 262.448 241.009 389.515 218.05 412.463C189.352 441.147 179.456 454.005 180.446 482.689Z" fill="black"/>
<path d="M425.865 342.236C423.265 323.424 408.052 305.969 399.146 299.704C392.878 295.748 387.271 287.241 414.979 284.868C442.688 282.494 468.087 289.154 477.323 292.78C509.98 303.331 580.043 343.818 599.043 421.365C618.044 498.911 587.9 562.803 560.449 589.513C510.64 637.979 400.729 745.99 359.562 790.302C308.103 845.692 283.363 845.692 274.457 846.682C265.551 847.671 176.487 860.529 138.883 779.422C108.799 714.537 143.501 660.07 164.612 640.947C242.79 563.467 401.719 405.737 412.01 394.659C424.875 380.811 427.504 354.101 425.865 342.236Z" fill="black"/>
</svg>
